<svg class="icon" viewBox="0 0 1024 1024" xmlns="http://www.w3.org/2000/svg" width="200" height="200">
	<path
		d="M489.998 22.002c-175.232 0-328.95 92.002-415.566 230.32l15.45 542.582c88.756 125.3 234.88 207.094 400.116 207.094 270.618 0 489.998-219.378 489.998-489.998 0-270.618-219.38-489.998-489.998-489.998z"
		fill="#3B3868" />
	<path
		d="M1008.56 225.226H506.74c-32.358 0-58.834-26.476-58.834-58.834 0-32.358 26.476-58.834 58.834-58.834h501.82c8.492 0 15.44 6.948 15.44 15.44v86.786c0 8.494-6.948 15.442-15.44 15.442z"
		fill="#1AA9E8" />
	<path
		d="M726.968 107.56H506.74c-32.358 0-58.832 26.474-58.832 58.834 0 32.358 26.474 58.834 58.832 58.834h220.228v-88.594c-19.112-15.664 0-29.074 0-29.074z"
		fill="#198FD8" />
	<path
		d="M981.334 140.28c1.864-.85 1.236-3.648-.812-3.648H506.74c-29.31 0-53.792 16.874-58.144 38.732 4.352 28.14 28.834 49.862 58.144 49.862h483.924c-23.02-6.734-39.518-24.032-39.518-44.196 0-17.318 12.168-32.534 30.188-40.75z"
		fill="#E9EFFF" />
	<path
		d="M726.968 136.634H506.74c-29.31 0-53.79 16.872-58.144 38.732 4.354 28.14 28.834 49.862 58.144 49.862h220.152c-45.336-10.164-44.356-78.424.076-88.594zm254.366 85.132V140.28c-18.022 8.216-30.188 23.432-30.188 40.75 0 17.316 12.172 32.52 30.188 40.736z"
		fill="#BEC8F7" />
	<path
		d="M76.346 249.258C28.014 325.192 0 415.322 0 512c0 39.686 4.752 78.258 13.658 115.21h156.108v-43.828c0-21.562 8.588-42.174 23.698-57.556 28.82-29.342 46.606-69.554 46.606-113.934-.002-90.188-73.406-163.204-163.724-162.634z"
		fill="#FFDD40" />
	<path
		d="M55.914 501.954c-17.19-25.782-27.212-56.748-27.212-90.062 0-69.782 43.96-129.25 105.684-152.338a162.38 162.38 0 00-58.04-10.294C28.014 325.192 0 415.322 0 512c0 39.686 4.752 78.258 13.658 115.21h42.256z"
		fill="#FFB332" />
	<path
		d="M311.478 426.166H281.45c-7.884 0-14.274-6.39-14.274-14.274s6.39-14.274 14.274-14.274h30.028a14.274 14.274 0 110 28.548zm-132.066-176.71a14.274 14.274 0 01-12.348-21.414l15.014-26.002a14.276 14.276 0 0124.724 14.274l-15.014 26.004a14.27 14.27 0 01-12.376 7.138zm74.714 74.686a14.274 14.274 0 01-7.15-26.638l26.004-15.012a14.276 14.276 0 0114.276 24.724l-26.004 15.012a14.24 14.24 0 01-7.126 1.914z"
		fill="#FFDD40" />
	<path
		d="M123.198 450.454H31.604c-11.908 0-21.56 9.652-21.56 21.56s9.652 21.56 21.56 21.56h91.594c11.908 0 21.56-9.652 21.56-21.56s-9.652-21.56-21.56-21.56z"
		fill="#FCF9EB" />
	<path
		d="M72.888 472.014c0-11.908 9.652-21.56 21.56-21.56H31.604c-11.908 0-21.56 9.652-21.56 21.56s9.652 21.56 21.56 21.56h62.844c-11.906 0-21.56-9.654-21.56-21.56z"
		fill="#FCECA9" />
	<path
		d="M114.116 599.144a14.276 14.276 0 01-12.89-8.124l-5.13-10.74c-7.078-14.818-10.818-31.656-10.818-48.7v-38.186c0-7.884 6.39-14.274 14.274-14.274s14.274 6.39 14.274 14.274v38.186c0 12.812 2.776 25.394 8.028 36.392l5.13 10.738a14.276 14.276 0 01-6.726 19.034c-1.984.95-4.078 1.4-6.142 1.4z"
		fill="#FFB332" />
	<path
		d="M40.686 599.144a14.274 14.274 0 01-12.872-20.43l5.13-10.74c5.252-10.996 8.028-23.58 8.028-36.392v-38.186a14.274 14.274 0 1128.548 0v38.186c0 17.046-3.74 33.886-10.816 48.698l-5.13 10.74a14.274 14.274 0 01-12.888 8.124z"
		fill="#FF9100" />
	<path
		d="M107.142 573.588H47.66c-12.398 0-22.54 10.144-22.54 22.54v31.082h104.562v-31.082c0-12.398-10.144-22.54-22.54-22.54z"
		fill="#FCECA9" />
	<path
		d="M132.196 750.566H61.938a490.406 490.406 0 0030.026 47.23h16.068c7.364 0 14.57-2.184 20.668-6.312a92.098 92.098 0 0015.664-13.4c9.742-10.442 2.112-27.518-12.168-27.518z"
		fill="#DAE2FE" />
	<path
		d="M116.56 791.482a92.098 92.098 0 01-15.664-13.4c-9.744-10.44-2.114-27.516 12.166-27.516H61.938a490.036 490.036 0 0030.028 47.23h16.066a36.968 36.968 0 0014.598-3.022 36.606 36.606 0 01-6.07-3.292z"
		fill="#BEC8F7" />
	<path
		d="M151.756 710.22H41.784a487.992 487.992 0 0020.686 41.296h87.538c7.418 0 13.946-4.968 15.876-12.13 1.01-3.75 1.7-7.266 2.166-10.472 1.438-9.874-6.316-18.694-16.294-18.694z"
		fill="#BEC8F7" />
	<path
		d="M93.456 739.386a90.108 90.108 0 01-2.166-10.472c-1.438-9.874 6.316-18.692 16.294-18.692h-65.8a488.574 488.574 0 0020.684 41.296h46.864c-7.418-.002-13.946-4.968-15.876-12.132z"
		fill="#A2B6F4" />
	<path d="M24.052 663.942a486.78 486.78 0 0018.148 47.23h110.348a16.448 16.448 0 0016.446-16.446v-30.784z"
		fill="#DAE2FE" />
	<path d="M86.302 694.726v-30.784h-62.25a486.78 486.78 0 0018.148 47.23h60.55a16.448 16.448 0 01-16.448-16.446z"
		fill="#BEC8F7" />
	<path
		d="M168.994 624.016H12.878a486.04 486.04 0 0012.212 43.12h143.906c11.908 0 21.56-9.652 21.56-21.56-.002-11.908-9.654-21.56-21.562-21.56z"
		fill="#E9EFFF" />
	<path
		d="M67.192 645.576c0-11.908 9.652-21.56 21.56-21.56H12.878a486.708 486.708 0 0012.21 43.12H88.75c-11.906 0-21.558-9.652-21.558-21.56z"
		fill="#DAE2FE" />
	<path
		d="M1008.56 221.874H506.74c-31.232 0-56.976-24.666-58.73-55.48h-.102v691.214c0 32.358 26.476 58.834 58.834 58.834h501.82c8.492 0 15.44-6.948 15.44-15.44v-694.57c-.002 8.492-6.95 15.442-15.442 15.442z"
		fill="#42C3FC" />
	<path
		d="M725.814 410.766h10.14v-66.462h-10.14c-13.444 0-24.444-11-24.444-24.444v-74.776c0-10.792 7.096-19.996 16.846-23.212H506.74c-31.232 0-56.976-24.668-58.73-55.48h-.102v691.214c0 32.358 26.474 58.834 58.832 58.834h208.362c-8.106-3.99-13.732-12.322-13.732-21.926V435.21c0-13.444 11-24.444 24.444-24.444z"
		fill="#1AA9E8" />
	<path
		d="M403.792 526.766l-50.684-50.682c-8.416-8.414-22.262-8.078-30.246 1.006-7.286 8.288-6.364 20.992 1.44 28.796l11.878 11.876c1.084 1.084.316 2.936-1.216 2.936h-78.938c-11.036 0-20.672 8.328-21.386 19.342-.78 12.068 8.776 22.098 20.676 22.098h79.648c1.532 0 2.3 1.854 1.216 2.936l-11.874 11.874c-7.804 7.804-8.728 20.506-1.444 28.796 7.98 9.084 21.828 9.422 30.246 1.008l50.684-50.682c8.086-8.09 8.088-21.214 0-29.304z"
		fill="#8686BF" />
	<path d="M510.016 221.874h60.754V916.44h-60.754z" fill="#42C3FC" />
	<path
		d="M952.22 343.182H642.55a12.772 12.772 0 00-12.772 12.772v43.168a12.772 12.772 0 0012.772 12.772h309.67a12.772 12.772 0 0012.772-12.772v-43.168a12.772 12.772 0 00-12.772-12.772z"
		fill="#1AA9E8" />
	<path
		d="M705.8 399.12v-43.168a12.772 12.772 0 0112.772-12.772h-76.02a12.772 12.772 0 00-12.772 12.772v43.168a12.772 12.772 0 0012.772 12.772h76.02A12.772 12.772 0 01705.8 399.12z"
		fill="#198FD8" />
	<path
		d="M831.666 677.86h-68.56c-9.116 0-16.502-7.388-16.502-16.502s7.388-16.502 16.502-16.502h68.56c9.116 0 16.502 7.388 16.502 16.502s-7.388 16.502-16.502 16.502z"
		fill="#B8F0FF" />
	<path
		d="M856.904 495.624H737.866c-9.116 0-16.502-7.388-16.502-16.502s7.388-16.502 16.502-16.502h119.038c9.116 0 16.502 7.388 16.502 16.502s-7.388 16.502-16.502 16.502zm6.804 246.288H731.062a16.504 16.504 0 010-33.006h132.646a16.5 16.5 0 0116.502 16.504 16.5 16.5 0 01-16.502 16.502zm0 64.05H731.062c-9.116 0-16.502-7.388-16.502-16.502s7.388-16.502 16.502-16.502h132.646a16.5 16.5 0 0116.502 16.502 16.5 16.5 0 01-16.502 16.502z"
		fill="#8AE1FF" />
	<path
		d="M334.964 520.698h-78.938c-11.036 0-20.672 8.328-21.386 19.342-.78 12.068 8.776 22.098 20.676 22.098h79.648c-22.222-22.222 0-41.44 0-41.44zm31.42 72.776c-31.018-.44-30.204-28.402-30.204-28.402l-11.874 11.874c-7.804 7.802-8.728 20.506-1.444 28.796 7.98 9.084 21.828 9.422 30.248 1.006z"
		fill="#5F5F9B" />
	<path
		d="M184.312 336.778a13.278 13.278 0 11-26.526 1.282 13.278 13.278 0 0126.526-1.282zm-30.272 25.934c.652 13.482-9.748 24.94-23.23 25.594-13.482.652-24.94-9.748-25.594-23.23-.652-13.482 9.748-24.94 23.23-25.592 13.484-.654 24.942 9.746 25.594 23.228z"
		fill="#FCECA9" />
</svg>