<?xml version="1.0" standalone="yes"?><svg xmlns="http://www.w3.org/2000/svg" version="1.1" width="455" height="455" viewBox="0 0 455 455" shape-rendering="crispEdges"><rect x="0" y="0" width="455" height="455" fill="white"/><path fill="black" d="M28 28h7v7H28V28M35 28h7v7H35V28M42 28h7v7H42V28M49 28h7v7H49V28M56 28h7v7H56V28M63 28h7v7H63V28M70 28h7v7H70V28M105 28h7v7H105V28M112 28h7v7H112V28M119 28h7v7H119V28M133 28h7v7H133V28M154 28h7v7H154V28M161 28h7v7H161V28M168 28h7v7H168V28M196 28h7v7H196V28M203 28h7v7H203V28M210 28h7v7H210V28M217 28h7v7H217V28M224 28h7v7H224V28M238 28h7v7H238V28M245 28h7v7H245V28M266 28h7v7H266V28M315 28h7v7H315V28M336 28h7v7H336V28M343 28h7v7H343V28M350 28h7v7H350V28M357 28h7v7H357V28M378 28h7v7H378V28M385 28h7v7H385V28M392 28h7v7H392V28M399 28h7v7H399V28M406 28h7v7H406V28M413 28h7v7H413V28M420 28h7v7H420V28M28 35h7v7H28V35M70 35h7v7H70V35M84 35h7v7H84V35M98 35h7v7H98V35M105 35h7v7H105V35M112 35h7v7H112V35M147 35h7v7H147V35M168 35h7v7H168V35M175 35h7v7H175V35M189 35h7v7H189V35M196 35h7v7H196V35M224 35h7v7H224V35M231 35h7v7H231V35M238 35h7v7H238V35M259 35h7v7H259V35M273 35h7v7H273V35M287 35h7v7H287V35M301 35h7v7H301V35M322 35h7v7H322V35M329 35h7v7H329V35M336 35h7v7H336V35M357 35h7v7H357V35M378 35h7v7H378V35M420 35h7v7H420V35M28 42h7v7H28V42M42 42h7v7H42V42M49 42h7v7H49V42M56 42h7v7H56V42M70 42h7v7H70V42M98 42h7v7H98V42M105 42h7v7H105V42M119 42h7v7H119V42M133 42h7v7H133V42M161 42h7v7H161V42M168 42h7v7H168V42M196 42h7v7H196V42M217 42h7v7H217V42M238 42h7v7H238V42M252 42h7v7H252V42M266 42h7v7H266V42M273 42h7v7H273V42M315 42h7v7H315V42M336 42h7v7H336V42M343 42h7v7H343V42M350 42h7v7H350V42M357 42h7v7H357V42M378 42h7v7H378V42M392 42h7v7H392V42M399 42h7v7H399V42M406 42h7v7H406V42M420 42h7v7H420V42M28 49h7v7H28V49M42 49h7v7H42V49M49 49h7v7H49V49M56 49h7v7H56V49M70 49h7v7H70V49M84 49h7v7H84V49M91 49h7v7H91V49M105 49h7v7H105V49M147 49h7v7H147V49M175 49h7v7H175V49M189 49h7v7H189V49M196 49h7v7H196V49M203 49h7v7H203V49M224 49h7v7H224V49M231 49h7v7H231V49M238 49h7v7H238V49M252 49h7v7H252V49M259 49h7v7H259V49M266 49h7v7H266V49M287 49h7v7H287V49M301 49h7v7H301V49M329 49h7v7H329V49M343 49h7v7H343V49M357 49h7v7H357V49M378 49h7v7H378V49M392 49h7v7H392V49M399 49h7v7H399V49M406 49h7v7H406V49M420 49h7v7H420V49M28 56h7v7H28V56M42 56h7v7H42V56M49 56h7v7H49V56M56 56h7v7H56V56M70 56h7v7H70V56M119 56h7v7H119V56M133 56h7v7H133V56M154 56h7v7H154V56M161 56h7v7H161V56M168 56h7v7H168V56M196 56h7v7H196V56M210 56h7v7H210V56M217 56h7v7H217V56M224 56h7v7H224V56M231 56h7v7H231V56M238 56h7v7H238V56M245 56h7v7H245V56M252 56h7v7H252V56M266 56h7v7H266V56M273 56h7v7H273V56M301 56h7v7H301V56M315 56h7v7H315V56M336 56h7v7H336V56M343 56h7v7H343V56M357 56h7v7H357V56M378 56h7v7H378V56M392 56h7v7H392V56M399 56h7v7H399V56M406 56h7v7H406V56M420 56h7v7H420V56M28 63h7v7H28V63M70 63h7v7H70V63M84 63h7v7H84V63M91 63h7v7H91V63M105 63h7v7H105V63M147 63h7v7H147V63M168 63h7v7H168V63M175 63h7v7H175V63M189 63h7v7H189V63M196 63h7v7H196V63M210 63h7v7H210V63M238 63h7v7H238V63M252 63h7v7H252V63M259 63h7v7H259V63M287 63h7v7H287V63M301 63h7v7H301V63M308 63h7v7H308V63M322 63h7v7H322V63M329 63h7v7H329V63M336 63h7v7H336V63M350 63h7v7H350V63M378 63h7v7H378V63M420 63h7v7H420V63M28 70h7v7H28V70M35 70h7v7H35V70M42 70h7v7H42V70M49 70h7v7H49V70M56 70h7v7H56V70M63 70h7v7H63V70M70 70h7v7H70V70M84 70h7v7H84V70M98 70h7v7H98V70M112 70h7v7H112V70M126 70h7v7H126V70M140 70h7v7H140V70M154 70h7v7H154V70M168 70h7v7H168V70M182 70h7v7H182V70M196 70h7v7H196V70M210 70h7v7H210V70M224 70h7v7H224V70M238 70h7v7H238V70M252 70h7v7H252V70M266 70h7v7H266V70M280 70h7v7H280V70M294 70h7v7H294V70M308 70h7v7H308V70M322 70h7v7H322V70M336 70h7v7H336V70M350 70h7v7H350V70M364 70h7v7H364V70M378 70h7v7H378V70M385 70h7v7H385V70M392 70h7v7H392V70M399 70h7v7H399V70M406 70h7v7H406V70M413 70h7v7H413V70M420 70h7v7H420V70M91 77h7v7H91V77M98 77h7v7H98V77M112 77h7v7H112V77M119 77h7v7H119V77M133 77h7v7H133V77M161 77h7v7H161V77M168 77h7v7H168V77M196 77h7v7H196V77M210 77h7v7H210V77M238 77h7v7H238V77M245 77h7v7H245V77M259 77h7v7H259V77M280 77h7v7H280V77M287 77h7v7H287V77M294 77h7v7H294V77M322 77h7v7H322V77M350 77h7v7H350V77M364 77h7v7H364V77M28 84h7v7H28V84M35 84h7v7H35V84M42 84h7v7H42V84M49 84h7v7H49V84M56 84h7v7H56V84M70 84h7v7H70V84M77 84h7v7H77V84M84 84h7v7H84V84M91 84h7v7H91V84M98 84h7v7H98V84M105 84h7v7H105V84M133 84h7v7H133V84M147 84h7v7H147V84M161 84h7v7H161V84M175 84h7v7H175V84M196 84h7v7H196V84M203 84h7v7H203V84M210 84h7v7H210V84M217 84h7v7H217V84M224 84h7v7H224V84M231 84h7v7H231V84M238 84h7v7H238V84M273 84h7v7H273V84M294 84h7v7H294V84M301 84h7v7H301V84M315 84h7v7H315V84M322 84h7v7H322V84M329 84h7v7H329V84M336 84h7v7H336V84M343 84h7v7H343V84M350 84h7v7H350V84M357 84h7v7H357V84M364 84h7v7H364V84M371 84h7v7H371V84M385 84h7v7H385V84M399 84h7v7H399V84M413 84h7v7H413V84M42 91h7v7H42V91M56 91h7v7H56V91M77 91h7v7H77V91M84 91h7v7H84V91M91 91h7v7H91V91M98 91h7v7H98V91M105 91h7v7H105V91M112 91h7v7H112V91M119 91h7v7H119V91M140 91h7v7H140V91M154 91h7v7H154V91M189 91h7v7H189V91M210 91h7v7H210V91M217 91h7v7H217V91M224 91h7v7H224V91M238 91h7v7H238V91M245 91h7v7H245V91M259 91h7v7H259V91M287 91h7v7H287V91M294 91h7v7H294V91M322 91h7v7H322V91M336 91h7v7H336V91M350 91h7v7H350V91M364 91h7v7H364V91M371 91h7v7H371V91M378 91h7v7H378V91M385 91h7v7H385V91M392 91h7v7H392V91M413 91h7v7H413V91M28 98h7v7H28V98M35 98h7v7H35V98M42 98h7v7H42V98M56 98h7v7H56V98M63 98h7v7H63V98M70 98h7v7H70V98M84 98h7v7H84V98M98 98h7v7H98V98M112 98h7v7H112V98M119 98h7v7H119V98M126 98h7v7H126V98M133 98h7v7H133V98M140 98h7v7H140V98M154 98h7v7H154V98M161 98h7v7H161V98M182 98h7v7H182V98M203 98h7v7H203V98M210 98h7v7H210V98M224 98h7v7H224V98M231 98h7v7H231V98M238 98h7v7H238V98M273 98h7v7H273V98M301 98h7v7H301V98M315 98h7v7H315V98M322 98h7v7H322V98M329 98h7v7H329V98M336 98h7v7H336V98M343 98h7v7H343V98M357 98h7v7H357V98M364 98h7v7H364V98M392 98h7v7H392V98M406 98h7v7H406V98M42 105h7v7H42V105M63 105h7v7H63V105M84 105h7v7H84V105M91 105h7v7H91V105M98 105h7v7H98V105M112 105h7v7H112V105M126 105h7v7H126V105M140 105h7v7H140V105M147 105h7v7H147V105M154 105h7v7H154V105M175 105h7v7H175V105M182 105h7v7H182V105M189 105h7v7H189V105M231 105h7v7H231V105M259 105h7v7H259V105M266 105h7v7H266V105M273 105h7v7H273V105M280 105h7v7H280V105M301 105h7v7H301V105M322 105h7v7H322V105M329 105h7v7H329V105M343 105h7v7H343V105M364 105h7v7H364V105M371 105h7v7H371V105M378 105h7v7H378V105M385 105h7v7H385V105M392 105h7v7H392V105M399 105h7v7H399V105M406 105h7v7H406V105M413 105h7v7H413V105M49 112h7v7H49V112M56 112h7v7H56V112M63 112h7v7H63V112M70 112h7v7H70V112M98 112h7v7H98V112M105 112h7v7H105V112M112 112h7v7H112V112M119 112h7v7H119V112M126 112h7v7H126V112M133 112h7v7H133V112M154 112h7v7H154V112M161 112h7v7H161V112M182 112h7v7H182V112M196 112h7v7H196V112M210 112h7v7H210V112M217 112h7v7H217V112M224 112h7v7H224V112M245 112h7v7H245V112M252 112h7v7H252V112M266 112h7v7H266V112M280 112h7v7H280V112M308 112h7v7H308V112M315 112h7v7H315V112M378 112h7v7H378V112M385 112h7v7H385V112M399 112h7v7H399V112M35 119h7v7H35V119M42 119h7v7H42V119M49 119h7v7H49V119M56 119h7v7H56V119M63 119h7v7H63V119M84 119h7v7H84V119M91 119h7v7H91V119M112 119h7v7H112V119M140 119h7v7H140V119M147 119h7v7H147V119M154 119h7v7H154V119M175 119h7v7H175V119M189 119h7v7H189V119M224 119h7v7H224V119M231 119h7v7H231V119M252 119h7v7H252V119M273 119h7v7H273V119M280 119h7v7H280V119M301 119h7v7H301V119M308 119h7v7H308V119M315 119h7v7H315V119M322 119h7v7H322V119M329 119h7v7H329V119M357 119h7v7H357V119M364 119h7v7H364V119M371 119h7v7H371V119M378 119h7v7H378V119M385 119h7v7H385V119M392 119h7v7H392V119M406 119h7v7H406V119M42 126h7v7H42V126M56 126h7v7H56V126M70 126h7v7H70V126M77 126h7v7H77V126M84 126h7v7H84V126M112 126h7v7H112V126M119 126h7v7H119V126M126 126h7v7H126V126M133 126h7v7H133V126M140 126h7v7H140V126M154 126h7v7H154V126M161 126h7v7H161V126M182 126h7v7H182V126M203 126h7v7H203V126M217 126h7v7H217V126M238 126h7v7H238V126M245 126h7v7H245V126M252 126h7v7H252V126M259 126h7v7H259V126M266 126h7v7H266V126M280 126h7v7H280V126M308 126h7v7H308V126M343 126h7v7H343V126M350 126h7v7H350V126M385 126h7v7H385V126M392 126h7v7H392V126M399 126h7v7H399V126M406 126h7v7H406V126M413 126h7v7H413V126M420 126h7v7H420V126M35 133h7v7H35V133M49 133h7v7H49V133M56 133h7v7H56V133M63 133h7v7H63V133M98 133h7v7H98V133M105 133h7v7H105V133M112 133h7v7H112V133M126 133h7v7H126V133M140 133h7v7H140V133M147 133h7v7H147V133M154 133h7v7H154V133M175 133h7v7H175V133M182 133h7v7H182V133M189 133h7v7H189V133M217 133h7v7H217V133M238 133h7v7H238V133M259 133h7v7H259V133M273 133h7v7H273V133M280 133h7v7H280V133M287 133h7v7H287V133M294 133h7v7H294V133M301 133h7v7H301V133M322 133h7v7H322V133M329 133h7v7H329V133M350 133h7v7H350V133M357 133h7v7H357V133M385 133h7v7H385V133M406 133h7v7H406V133M420 133h7v7H420V133M28 140h7v7H28V140M42 140h7v7H42V140M56 140h7v7H56V140M70 140h7v7H70V140M77 140h7v7H77V140M105 140h7v7H105V140M119 140h7v7H119V140M126 140h7v7H126V140M133 140h7v7H133V140M154 140h7v7H154V140M161 140h7v7H161V140M182 140h7v7H182V140M196 140h7v7H196V140M203 140h7v7H203V140M224 140h7v7H224V140M231 140h7v7H231V140M245 140h7v7H245V140M252 140h7v7H252V140M280 140h7v7H280V140M294 140h7v7H294V140M308 140h7v7H308V140M315 140h7v7H315V140M322 140h7v7H322V140M343 140h7v7H343V140M350 140h7v7H350V140M357 140h7v7H357V140M364 140h7v7H364V140M371 140h7v7H371V140M392 140h7v7H392V140M399 140h7v7H399V140M406 140h7v7H406V140M413 140h7v7H413V140M420 140h7v7H420V140M49 147h7v7H49V147M63 147h7v7H63V147M98 147h7v7H98V147M112 147h7v7H112V147M140 147h7v7H140V147M147 147h7v7H147V147M154 147h7v7H154V147M175 147h7v7H175V147M189 147h7v7H189V147M217 147h7v7H217V147M224 147h7v7H224V147M238 147h7v7H238V147M252 147h7v7H252V147M259 147h7v7H259V147M273 147h7v7H273V147M280 147h7v7H280V147M287 147h7v7H287V147M294 147h7v7H294V147M301 147h7v7H301V147M308 147h7v7H308V147M322 147h7v7H322V147M329 147h7v7H329V147M350 147h7v7H350V147M364 147h7v7H364V147M385 147h7v7H385V147M392 147h7v7H392V147M406 147h7v7H406V147M28 154h7v7H28V154M35 154h7v7H35V154M42 154h7v7H42V154M49 154h7v7H49V154M56 154h7v7H56V154M63 154h7v7H63V154M70 154h7v7H70V154M77 154h7v7H77V154M84 154h7v7H84V154M91 154h7v7H91V154M133 154h7v7H133V154M140 154h7v7H140V154M154 154h7v7H154V154M161 154h7v7H161V154M182 154h7v7H182V154M203 154h7v7H203V154M224 154h7v7H224V154M245 154h7v7H245V154M252 154h7v7H252V154M280 154h7v7H280V154M308 154h7v7H308V154M315 154h7v7H315V154M322 154h7v7H322V154M343 154h7v7H343V154M357 154h7v7H357V154M364 154h7v7H364V154M371 154h7v7H371V154M392 154h7v7H392V154M399 154h7v7H399V154M406 154h7v7H406V154M413 154h7v7H413V154M420 154h7v7H420V154M28 161h7v7H28V161M56 161h7v7H56V161M77 161h7v7H77V161M105 161h7v7H105V161M112 161h7v7H112V161M119 161h7v7H119V161M140 161h7v7H140V161M147 161h7v7H147V161M154 161h7v7H154V161M175 161h7v7H175V161M182 161h7v7H182V161M189 161h7v7H189V161M231 161h7v7H231V161M259 161h7v7H259V161M273 161h7v7H273V161M287 161h7v7H287V161M294 161h7v7H294V161M308 161h7v7H308V161M322 161h7v7H322V161M336 161h7v7H336V161M350 161h7v7H350V161M364 161h7v7H364V161M371 161h7v7H371V161M378 161h7v7H378V161M406 161h7v7H406V161M420 161h7v7H420V161M35 168h7v7H35V168M42 168h7v7H42V168M56 168h7v7H56V168M70 168h7v7H70V168M77 168h7v7H77V168M98 168h7v7H98V168M105 168h7v7H105V168M133 168h7v7H133V168M154 168h7v7H154V168M161 168h7v7H161V168M182 168h7v7H182V168M196 168h7v7H196V168M203 168h7v7H203V168M217 168h7v7H217V168M252 168h7v7H252V168M273 168h7v7H273V168M280 168h7v7H280V168M294 168h7v7H294V168M315 168h7v7H315V168M322 168h7v7H322V168M343 168h7v7H343V168M350 168h7v7H350V168M364 168h7v7H364V168M371 168h7v7H371V168M378 168h7v7H378V168M385 168h7v7H385V168M399 168h7v7H399V168M406 168h7v7H406V168M413 168h7v7H413V168M420 168h7v7H420V168M35 175h7v7H35V175M42 175h7v7H42V175M63 175h7v7H63V175M77 175h7v7H77V175M119 175h7v7H119V175M140 175h7v7H140V175M147 175h7v7H147V175M154 175h7v7H154V175M175 175h7v7H175V175M189 175h7v7H189V175M203 175h7v7H203V175M210 175h7v7H210V175M231 175h7v7H231V175M245 175h7v7H245V175M252 175h7v7H252V175M259 175h7v7H259V175M280 175h7v7H280V175M287 175h7v7H287V175M294 175h7v7H294V175M308 175h7v7H308V175M322 175h7v7H322V175M329 175h7v7H329V175M350 175h7v7H350V175M357 175h7v7H357V175M399 175h7v7H399V175M420 175h7v7H420V175M56 182h7v7H56V182M63 182h7v7H63V182M70 182h7v7H70V182M91 182h7v7H91V182M98 182h7v7H98V182M105 182h7v7H105V182M119 182h7v7H119V182M133 182h7v7H133V182M140 182h7v7H140V182M154 182h7v7H154V182M161 182h7v7H161V182M182 182h7v7H182V182M210 182h7v7H210V182M217 182h7v7H217V182M238 182h7v7H238V182M280 182h7v7H280V182M301 182h7v7H301V182M308 182h7v7H308V182M315 182h7v7H315V182M322 182h7v7H322V182M336 182h7v7H336V182M343 182h7v7H343V182M378 182h7v7H378V182M385 182h7v7H385V182M413 182h7v7H413V182M35 189h7v7H35V189M42 189h7v7H42V189M49 189h7v7H49V189M84 189h7v7H84V189M91 189h7v7H91V189M112 189h7v7H112V189M140 189h7v7H140V189M147 189h7v7H147V189M154 189h7v7H154V189M175 189h7v7H175V189M182 189h7v7H182V189M189 189h7v7H189V189M203 189h7v7H203V189M210 189h7v7H210V189M231 189h7v7H231V189M266 189h7v7H266V189M273 189h7v7H273V189M280 189h7v7H280V189M301 189h7v7H301V189M315 189h7v7H315V189M329 189h7v7H329V189M343 189h7v7H343V189M357 189h7v7H357V189M399 189h7v7H399V189M413 189h7v7H413V189M28 196h7v7H28V196M35 196h7v7H35V196M56 196h7v7H56V196M70 196h7v7H70V196M84 196h7v7H84V196M91 196h7v7H91V196M119 196h7v7H119V196M154 196h7v7H154V196M182 196h7v7H182V196M189 196h7v7H189V196M196 196h7v7H196V196M217 196h7v7H217V196M245 196h7v7H245V196M252 196h7v7H252V196M259 196h7v7H259V196M266 196h7v7H266V196M280 196h7v7H280V196M287 196h7v7H287V196M308 196h7v7H308V196M364 196h7v7H364V196M371 196h7v7H371V196M385 196h7v7H385V196M406 196h7v7H406V196M420 196h7v7H420V196M28 203h7v7H28V203M63 203h7v7H63V203M91 203h7v7H91V203M98 203h7v7H98V203M105 203h7v7H105V203M112 203h7v7H112V203M119 203h7v7H119V203M126 203h7v7H126V203M133 203h7v7H133V203M147 203h7v7H147V203M154 203h7v7H154V203M161 203h7v7H161V203M168 203h7v7H168V203M175 203h7v7H175V203M196 203h7v7H196V203M210 203h7v7H210V203M231 203h7v7H231V203M252 203h7v7H252V203M266 203h7v7H266V203M273 203h7v7H273V203M280 203h7v7H280V203M301 203h7v7H301V203M308 203h7v7H308V203M315 203h7v7H315V203M329 203h7v7H329V203M343 203h7v7H343V203M357 203h7v7H357V203M399 203h7v7H399V203M406 203h7v7H406V203M28 210h7v7H28V210M56 210h7v7H56V210M63 210h7v7H63V210M70 210h7v7H70V210M77 210h7v7H77V210M84 210h7v7H84V210M91 210h7v7H91V210M98 210h7v7H98V210M119 210h7v7H119V210M147 210h7v7H147V210M168 210h7v7H168V210M175 210h7v7H175V210M189 210h7v7H189V210M196 210h7v7H196V210M203 210h7v7H203V210M210 210h7v7H210V210M217 210h7v7H217V210M224 210h7v7H224V210M231 210h7v7H231V210M238 210h7v7H238V210M245 210h7v7H245V210M252 210h7v7H252V210M259 210h7v7H259V210M280 210h7v7H280V210M287 210h7v7H287V210M308 210h7v7H308V210M322 210h7v7H322V210M364 210h7v7H364V210M371 210h7v7H371V210M378 210h7v7H378V210M385 210h7v7H385V210M392 210h7v7H392V210M406 210h7v7H406V210M413 210h7v7H413V210M420 210h7v7H420V210M42 217h7v7H42V217M56 217h7v7H56V217M84 217h7v7H84V217M91 217h7v7H91V217M112 217h7v7H112V217M119 217h7v7H119V217M133 217h7v7H133V217M161 217h7v7H161V217M168 217h7v7H168V217M196 217h7v7H196V217M203 217h7v7H203V217M210 217h7v7H210V217M238 217h7v7H238V217M245 217h7v7H245V217M259 217h7v7H259V217M280 217h7v7H280V217M287 217h7v7H287V217M315 217h7v7H315V217M350 217h7v7H350V217M357 217h7v7H357V217M364 217h7v7H364V217M392 217h7v7H392V217M399 217h7v7H399V217M406 217h7v7H406V217M420 217h7v7H420V217M28 224h7v7H28V224M49 224h7v7H49V224M56 224h7v7H56V224M70 224h7v7H70V224M84 224h7v7H84V224M91 224h7v7H91V224M98 224h7v7H98V224M105 224h7v7H105V224M119 224h7v7H119V224M147 224h7v7H147V224M175 224h7v7H175V224M189 224h7v7H189V224M196 224h7v7H196V224M210 224h7v7H210V224M224 224h7v7H224V224M238 224h7v7H238V224M266 224h7v7H266V224M273 224h7v7H273V224M287 224h7v7H287V224M301 224h7v7H301V224M315 224h7v7H315V224M329 224h7v7H329V224M336 224h7v7H336V224M343 224h7v7H343V224M357 224h7v7H357V224M364 224h7v7H364V224M378 224h7v7H378V224M392 224h7v7H392V224M399 224h7v7H399V224M413 224h7v7H413V224M420 224h7v7H420V224M56 231h7v7H56V231M84 231h7v7H84V231M91 231h7v7H91V231M126 231h7v7H126V231M133 231h7v7H133V231M154 231h7v7H154V231M161 231h7v7H161V231M168 231h7v7H168V231M196 231h7v7H196V231M210 231h7v7H210V231M238 231h7v7H238V231M245 231h7v7H245V231M259 231h7v7H259V231M315 231h7v7H315V231M322 231h7v7H322V231M336 231h7v7H336V231M357 231h7v7H357V231M364 231h7v7H364V231M392 231h7v7H392V231M399 231h7v7H399V231M413 231h7v7H413V231M28 238h7v7H28V238M35 238h7v7H35V238M42 238h7v7H42V238M56 238h7v7H56V238M63 238h7v7H63V238M70 238h7v7H70V238M77 238h7v7H77V238M84 238h7v7H84V238M98 238h7v7H98V238M105 238h7v7H105V238M147 238h7v7H147V238M168 238h7v7H168V238M175 238h7v7H175V238M189 238h7v7H189V238M196 238h7v7H196V238M203 238h7v7H203V238M210 238h7v7H210V238M217 238h7v7H217V238M224 238h7v7H224V238M231 238h7v7H231V238M238 238h7v7H238V238M259 238h7v7H259V238M273 238h7v7H273V238M294 238h7v7H294V238M301 238h7v7H301V238M329 238h7v7H329V238M336 238h7v7H336V238M343 238h7v7H343V238M350 238h7v7H350V238M364 238h7v7H364V238M371 238h7v7H371V238M378 238h7v7H378V238M385 238h7v7H385V238M392 238h7v7H392V238M42 245h7v7H42V245M63 245h7v7H63V245M91 245h7v7H91V245M105 245h7v7H105V245M112 245h7v7H112V245M126 245h7v7H126V245M133 245h7v7H133V245M161 245h7v7H161V245M168 245h7v7H168V245M196 245h7v7H196V245M203 245h7v7H203V245M217 245h7v7H217V245M238 245h7v7H238V245M245 245h7v7H245V245M266 245h7v7H266V245M280 245h7v7H280V245M315 245h7v7H315V245M343 245h7v7H343V245M357 245h7v7H357V245M364 245h7v7H364V245M371 245h7v7H371V245M385 245h7v7H385V245M399 245h7v7H399V245M413 245h7v7H413V245M35 252h7v7H35V252M42 252h7v7H42V252M70 252h7v7H70V252M77 252h7v7H77V252M91 252h7v7H91V252M105 252h7v7H105V252M112 252h7v7H112V252M119 252h7v7H119V252M147 252h7v7H147V252M175 252h7v7H175V252M189 252h7v7H189V252M196 252h7v7H196V252M203 252h7v7H203V252M210 252h7v7H210V252M217 252h7v7H217V252M238 252h7v7H238V252M259 252h7v7H259V252M266 252h7v7H266V252M273 252h7v7H273V252M287 252h7v7H287V252M301 252h7v7H301V252M329 252h7v7H329V252M336 252h7v7H336V252M364 252h7v7H364V252M392 252h7v7H392V252M406 252h7v7H406V252M28 259h7v7H28V259M42 259h7v7H42V259M49 259h7v7H49V259M63 259h7v7H63V259M84 259h7v7H84V259M98 259h7v7H98V259M112 259h7v7H112V259M119 259h7v7H119V259M126 259h7v7H126V259M133 259h7v7H133V259M154 259h7v7H154V259M161 259h7v7H161V259M168 259h7v7H168V259M196 259h7v7H196V259M203 259h7v7H203V259M217 259h7v7H217V259M224 259h7v7H224V259M231 259h7v7H231V259M238 259h7v7H238V259M245 259h7v7H245V259M266 259h7v7H266V259M315 259h7v7H315V259M336 259h7v7H336V259M343 259h7v7H343V259M357 259h7v7H357V259M364 259h7v7H364V259M371 259h7v7H371V259M385 259h7v7H385V259M399 259h7v7H399V259M413 259h7v7H413V259M35 266h7v7H35V266M56 266h7v7H56V266M63 266h7v7H63V266M70 266h7v7H70V266M98 266h7v7H98V266M105 266h7v7H105V266M112 266h7v7H112V266M147 266h7v7H147V266M168 266h7v7H168V266M175 266h7v7H175V266M189 266h7v7H189V266M196 266h7v7H196V266M210 266h7v7H210V266M238 266h7v7H238V266M259 266h7v7H259V266M273 266h7v7H273V266M287 266h7v7H287V266M301 266h7v7H301V266M322 266h7v7H322V266M329 266h7v7H329V266M336 266h7v7H336V266M364 266h7v7H364V266M392 266h7v7H392V266M28 273h7v7H28V273M35 273h7v7H35V273M42 273h7v7H42V273M56 273h7v7H56V273M63 273h7v7H63V273M77 273h7v7H77V273M91 273h7v7H91V273M119 273h7v7H119V273M133 273h7v7H133V273M161 273h7v7H161V273M168 273h7v7H168V273M196 273h7v7H196V273M203 273h7v7H203V273M217 273h7v7H217V273M231 273h7v7H231V273M238 273h7v7H238V273M245 273h7v7H245V273M266 273h7v7H266V273M280 273h7v7H280V273M301 273h7v7H301V273M308 273h7v7H308V273M315 273h7v7H315V273M329 273h7v7H329V273M336 273h7v7H336V273M343 273h7v7H343V273M371 273h7v7H371V273M385 273h7v7H385V273M399 273h7v7H399V273M413 273h7v7H413V273M28 280h7v7H28V280M35 280h7v7H35V280M49 280h7v7H49V280M56 280h7v7H56V280M63 280h7v7H63V280M70 280h7v7H70V280M77 280h7v7H77V280M84 280h7v7H84V280M105 280h7v7H105V280M112 280h7v7H112V280M147 280h7v7H147V280M175 280h7v7H175V280M189 280h7v7H189V280M196 280h7v7H196V280M203 280h7v7H203V280M210 280h7v7H210V280M238 280h7v7H238V280M259 280h7v7H259V280M266 280h7v7H266V280M280 280h7v7H280V280M287 280h7v7H287V280M329 280h7v7H329V280M357 280h7v7H357V280M364 280h7v7H364V280M371 280h7v7H371V280M378 280h7v7H378V280M406 280h7v7H406V280M28 287h7v7H28V287M35 287h7v7H35V287M63 287h7v7H63V287M77 287h7v7H77V287M84 287h7v7H84V287M112 287h7v7H112V287M119 287h7v7H119V287M133 287h7v7H133V287M154 287h7v7H154V287M161 287h7v7H161V287M168 287h7v7H168V287M196 287h7v7H196V287M203 287h7v7H203V287M217 287h7v7H217V287M231 287h7v7H231V287M245 287h7v7H245V287M252 287h7v7H252V287M266 287h7v7H266V287M280 287h7v7H280V287M301 287h7v7H301V287M308 287h7v7H308V287M315 287h7v7H315V287M329 287h7v7H329V287M343 287h7v7H343V287M357 287h7v7H357V287M378 287h7v7H378V287M385 287h7v7H385V287M406 287h7v7H406V287M413 287h7v7H413V287M49 294h7v7H49V294M63 294h7v7H63V294M70 294h7v7H70V294M84 294h7v7H84V294M98 294h7v7H98V294M105 294h7v7H105V294M112 294h7v7H112V294M126 294h7v7H126V294M147 294h7v7H147V294M168 294h7v7H168V294M175 294h7v7H175V294M189 294h7v7H189V294M196 294h7v7H196V294M210 294h7v7H210V294M259 294h7v7H259V294M280 294h7v7H280V294M287 294h7v7H287V294M322 294h7v7H322V294M357 294h7v7H357V294M371 294h7v7H371V294M378 294h7v7H378V294M399 294h7v7H399V294M406 294h7v7H406V294M63 301h7v7H63V301M77 301h7v7H77V301M84 301h7v7H84V301M105 301h7v7H105V301M112 301h7v7H112V301M119 301h7v7H119V301M133 301h7v7H133V301M161 301h7v7H161V301M168 301h7v7H168V301M196 301h7v7H196V301M217 301h7v7H217V301M231 301h7v7H231V301M245 301h7v7H245V301M259 301h7v7H259V301M280 301h7v7H280V301M287 301h7v7H287V301M294 301h7v7H294V301M322 301h7v7H322V301M350 301h7v7H350V301M364 301h7v7H364V301M385 301h7v7H385V301M406 301h7v7H406V301M28 308h7v7H28V308M35 308h7v7H35V308M42 308h7v7H42V308M56 308h7v7H56V308M70 308h7v7H70V308M126 308h7v7H126V308M133 308h7v7H133V308M147 308h7v7H147V308M161 308h7v7H161V308M175 308h7v7H175V308M196 308h7v7H196V308M217 308h7v7H217V308M238 308h7v7H238V308M273 308h7v7H273V308M294 308h7v7H294V308M301 308h7v7H301V308M315 308h7v7H315V308M322 308h7v7H322V308M329 308h7v7H329V308M336 308h7v7H336V308M343 308h7v7H343V308M350 308h7v7H350V308M371 308h7v7H371V308M378 308h7v7H378V308M385 308h7v7H385V308M399 308h7v7H399V308M406 308h7v7H406V308M49 315h7v7H49V315M56 315h7v7H56V315M63 315h7v7H63V315M105 315h7v7H105V315M112 315h7v7H112V315M126 315h7v7H126V315M140 315h7v7H140V315M154 315h7v7H154V315M189 315h7v7H189V315M210 315h7v7H210V315M224 315h7v7H224V315M231 315h7v7H231V315M238 315h7v7H238V315M245 315h7v7H245V315M259 315h7v7H259V315M287 315h7v7H287V315M294 315h7v7H294V315M322 315h7v7H322V315M336 315h7v7H336V315M350 315h7v7H350V315M364 315h7v7H364V315M371 315h7v7H371V315M378 315h7v7H378V315M392 315h7v7H392V315M399 315h7v7H399V315M406 315h7v7H406V315M413 315h7v7H413V315M35 322h7v7H35V322M42 322h7v7H42V322M56 322h7v7H56V322M70 322h7v7H70V322M77 322h7v7H77V322M84 322h7v7H84V322M112 322h7v7H112V322M126 322h7v7H126V322M133 322h7v7H133V322M140 322h7v7H140V322M154 322h7v7H154V322M161 322h7v7H161V322M182 322h7v7H182V322M217 322h7v7H217V322M224 322h7v7H224V322M238 322h7v7H238V322M273 322h7v7H273V322M301 322h7v7H301V322M315 322h7v7H315V322M322 322h7v7H322V322M329 322h7v7H329V322M336 322h7v7H336V322M343 322h7v7H343V322M371 322h7v7H371V322M385 322h7v7H385V322M392 322h7v7H392V322M406 322h7v7H406V322M49 329h7v7H49V329M63 329h7v7H63V329M77 329h7v7H77V329M84 329h7v7H84V329M105 329h7v7H105V329M119 329h7v7H119V329M126 329h7v7H126V329M140 329h7v7H140V329M147 329h7v7H147V329M154 329h7v7H154V329M175 329h7v7H175V329M182 329h7v7H182V329M189 329h7v7H189V329M203 329h7v7H203V329M210 329h7v7H210V329M224 329h7v7H224V329M231 329h7v7H231V329M238 329h7v7H238V329M259 329h7v7H259V329M266 329h7v7H266V329M273 329h7v7H273V329M280 329h7v7H280V329M287 329h7v7H287V329M294 329h7v7H294V329M301 329h7v7H301V329M315 329h7v7H315V329M329 329h7v7H329V329M343 329h7v7H343V329M350 329h7v7H350V329M364 329h7v7H364V329M371 329h7v7H371V329M378 329h7v7H378V329M392 329h7v7H392V329M399 329h7v7H399V329M406 329h7v7H406V329M413 329h7v7H413V329M35 336h7v7H35V336M42 336h7v7H42V336M56 336h7v7H56V336M70 336h7v7H70V336M77 336h7v7H77V336M91 336h7v7H91V336M105 336h7v7H105V336M112 336h7v7H112V336M119 336h7v7H119V336M126 336h7v7H126V336M133 336h7v7H133V336M154 336h7v7H154V336M161 336h7v7H161V336M182 336h7v7H182V336M196 336h7v7H196V336M217 336h7v7H217V336M238 336h7v7H238V336M245 336h7v7H245V336M252 336h7v7H252V336M266 336h7v7H266V336M280 336h7v7H280V336M287 336h7v7H287V336M308 336h7v7H308V336M315 336h7v7H315V336M322 336h7v7H322V336M371 336h7v7H371V336M378 336h7v7H378V336M385 336h7v7H385V336M399 336h7v7H399V336M35 343h7v7H35V343M42 343h7v7H42V343M56 343h7v7H56V343M63 343h7v7H63V343M77 343h7v7H77V343M84 343h7v7H84V343M98 343h7v7H98V343M105 343h7v7H105V343M112 343h7v7H112V343M119 343h7v7H119V343M126 343h7v7H126V343M140 343h7v7H140V343M147 343h7v7H147V343M154 343h7v7H154V343M175 343h7v7H175V343M189 343h7v7H189V343M224 343h7v7H224V343M231 343h7v7H231V343M238 343h7v7H238V343M252 343h7v7H252V343M259 343h7v7H259V343M266 343h7v7H266V343M273 343h7v7H273V343M280 343h7v7H280V343M301 343h7v7H301V343M308 343h7v7H308V343M322 343h7v7H322V343M329 343h7v7H329V343M364 343h7v7H364V343M378 343h7v7H378V343M392 343h7v7H392V343M406 343h7v7H406V343M28 350h7v7H28V350M42 350h7v7H42V350M63 350h7v7H63V350M70 350h7v7H70V350M84 350h7v7H84V350M98 350h7v7H98V350M105 350h7v7H105V350M119 350h7v7H119V350M133 350h7v7H133V350M140 350h7v7H140V350M154 350h7v7H154V350M161 350h7v7H161V350M182 350h7v7H182V350M217 350h7v7H217V350M224 350h7v7H224V350M238 350h7v7H238V350M245 350h7v7H245V350M252 350h7v7H252V350M266 350h7v7H266V350M280 350h7v7H280V350M294 350h7v7H294V350M308 350h7v7H308V350M350 350h7v7H350V350M371 350h7v7H371V350M378 350h7v7H378V350M385 350h7v7H385V350M392 350h7v7H392V350M399 350h7v7H399V350M406 350h7v7H406V350M413 350h7v7H413V350M420 350h7v7H420V350M28 357h7v7H28V357M35 357h7v7H35V357M42 357h7v7H42V357M49 357h7v7H49V357M56 357h7v7H56V357M84 357h7v7H84V357M91 357h7v7H91V357M98 357h7v7H98V357M119 357h7v7H119V357M126 357h7v7H126V357M140 357h7v7H140V357M147 357h7v7H147V357M154 357h7v7H154V357M175 357h7v7H175V357M182 357h7v7H182V357M189 357h7v7H189V357M224 357h7v7H224V357M231 357h7v7H231V357M238 357h7v7H238V357M259 357h7v7H259V357M273 357h7v7H273V357M280 357h7v7H280V357M287 357h7v7H287V357M294 357h7v7H294V357M301 357h7v7H301V357M322 357h7v7H322V357M329 357h7v7H329V357M350 357h7v7H350V357M357 357h7v7H357V357M392 357h7v7H392V357M406 357h7v7H406V357M420 357h7v7H420V357M70 364h7v7H70V364M84 364h7v7H84V364M91 364h7v7H91V364M119 364h7v7H119V364M133 364h7v7H133V364M154 364h7v7H154V364M161 364h7v7H161V364M182 364h7v7H182V364M196 364h7v7H196V364M210 364h7v7H210V364M217 364h7v7H217V364M224 364h7v7H224V364M231 364h7v7H231V364M238 364h7v7H238V364M245 364h7v7H245V364M252 364h7v7H252V364M280 364h7v7H280V364M294 364h7v7H294V364M308 364h7v7H308V364M315 364h7v7H315V364M322 364h7v7H322V364M343 364h7v7H343V364M350 364h7v7H350V364M364 364h7v7H364V364M371 364h7v7H371V364M378 364h7v7H378V364M385 364h7v7H385V364M392 364h7v7H392V364M399 364h7v7H399V364M406 364h7v7H406V364M413 364h7v7H413V364M420 364h7v7H420V364M84 371h7v7H84V371M91 371h7v7H91V371M98 371h7v7H98V371M105 371h7v7H105V371M126 371h7v7H126V371M140 371h7v7H140V371M147 371h7v7H147V371M154 371h7v7H154V371M175 371h7v7H175V371M189 371h7v7H189V371M210 371h7v7H210V371M238 371h7v7H238V371M252 371h7v7H252V371M259 371h7v7H259V371M273 371h7v7H273V371M280 371h7v7H280V371M287 371h7v7H287V371M294 371h7v7H294V371M301 371h7v7H301V371M308 371h7v7H308V371M322 371h7v7H322V371M329 371h7v7H329V371M350 371h7v7H350V371M357 371h7v7H357V371M364 371h7v7H364V371M392 371h7v7H392V371M406 371h7v7H406V371M28 378h7v7H28V378M35 378h7v7H35V378M42 378h7v7H42V378M49 378h7v7H49V378M56 378h7v7H56V378M63 378h7v7H63V378M70 378h7v7H70V378M84 378h7v7H84V378M105 378h7v7H105V378M119 378h7v7H119V378M133 378h7v7H133V378M140 378h7v7H140V378M154 378h7v7H154V378M161 378h7v7H161V378M182 378h7v7H182V378M203 378h7v7H203V378M210 378h7v7H210V378M224 378h7v7H224V378M238 378h7v7H238V378M245 378h7v7H245V378M252 378h7v7H252V378M280 378h7v7H280V378M308 378h7v7H308V378M315 378h7v7H315V378M322 378h7v7H322V378M343 378h7v7H343V378M364 378h7v7H364V378M378 378h7v7H378V378M392 378h7v7H392V378M399 378h7v7H399V378M406 378h7v7H406V378M413 378h7v7H413V378M420 378h7v7H420V378M28 385h7v7H28V385M70 385h7v7H70V385M91 385h7v7H91V385M98 385h7v7H98V385M126 385h7v7H126V385M140 385h7v7H140V385M147 385h7v7H147V385M154 385h7v7H154V385M175 385h7v7H175V385M182 385h7v7H182V385M189 385h7v7H189V385M210 385h7v7H210V385M238 385h7v7H238V385M252 385h7v7H252V385M259 385h7v7H259V385M287 385h7v7H287V385M294 385h7v7H294V385M301 385h7v7H301V385M308 385h7v7H308V385M322 385h7v7H322V385M336 385h7v7H336V385M350 385h7v7H350V385M364 385h7v7H364V385M392 385h7v7H392V385M406 385h7v7H406V385M420 385h7v7H420V385M28 392h7v7H28V392M42 392h7v7H42V392M49 392h7v7H49V392M56 392h7v7H56V392M70 392h7v7H70V392M84 392h7v7H84V392M98 392h7v7H98V392M105 392h7v7H105V392M119 392h7v7H119V392M126 392h7v7H126V392M133 392h7v7H133V392M154 392h7v7H154V392M161 392h7v7H161V392M182 392h7v7H182V392M196 392h7v7H196V392M210 392h7v7H210V392M217 392h7v7H217V392M224 392h7v7H224V392M231 392h7v7H231V392M238 392h7v7H238V392M252 392h7v7H252V392M294 392h7v7H294V392M315 392h7v7H315V392M322 392h7v7H322V392M329 392h7v7H329V392M343 392h7v7H343V392M350 392h7v7H350V392M364 392h7v7H364V392M371 392h7v7H371V392M378 392h7v7H378V392M385 392h7v7H385V392M392 392h7v7H392V392M399 392h7v7H399V392M406 392h7v7H406V392M413 392h7v7H413V392M420 392h7v7H420V392M28 399h7v7H28V399M42 399h7v7H42V399M49 399h7v7H49V399M56 399h7v7H56V399M70 399h7v7H70V399M84 399h7v7H84V399M112 399h7v7H112V399M119 399h7v7H119V399M126 399h7v7H126V399M140 399h7v7H140V399M147 399h7v7H147V399M154 399h7v7H154V399M175 399h7v7H175V399M189 399h7v7H189V399M203 399h7v7H203V399M231 399h7v7H231V399M245 399h7v7H245V399M252 399h7v7H252V399M259 399h7v7H259V399M273 399h7v7H273V399M280 399h7v7H280V399M287 399h7v7H287V399M294 399h7v7H294V399M308 399h7v7H308V399M322 399h7v7H322V399M350 399h7v7H350V399M357 399h7v7H357V399M364 399h7v7H364V399M371 399h7v7H371V399M378 399h7v7H378V399M392 399h7v7H392V399M399 399h7v7H399V399M28 406h7v7H28V406M42 406h7v7H42V406M49 406h7v7H49V406M56 406h7v7H56V406M70 406h7v7H70V406M84 406h7v7H84V406M105 406h7v7H105V406M112 406h7v7H112V406M119 406h7v7H119V406M133 406h7v7H133V406M140 406h7v7H140V406M154 406h7v7H154V406M161 406h7v7H161V406M182 406h7v7H182V406M217 406h7v7H217V406M252 406h7v7H252V406M280 406h7v7H280V406M308 406h7v7H308V406M315 406h7v7H315V406M322 406h7v7H322V406M343 406h7v7H343V406M364 406h7v7H364V406M378 406h7v7H378V406M28 413h7v7H28V413M70 413h7v7H70V413M84 413h7v7H84V413M91 413h7v7H91V413M98 413h7v7H98V413M105 413h7v7H105V413M112 413h7v7H112V413M140 413h7v7H140V413M147 413h7v7H147V413M154 413h7v7H154V413M175 413h7v7H175V413M182 413h7v7H182V413M189 413h7v7H189V413M203 413h7v7H203V413M224 413h7v7H224V413M231 413h7v7H231V413M266 413h7v7H266V413M273 413h7v7H273V413M280 413h7v7H280V413M301 413h7v7H301V413M315 413h7v7H315V413M329 413h7v7H329V413M343 413h7v7H343V413M357 413h7v7H357V413M364 413h7v7H364V413M371 413h7v7H371V413M378 413h7v7H378V413M385 413h7v7H385V413M399 413h7v7H399V413M28 420h7v7H28V420M35 420h7v7H35V420M42 420h7v7H42V420M49 420h7v7H49V420M56 420h7v7H56V420M63 420h7v7H63V420M70 420h7v7H70V420M84 420h7v7H84V420M91 420h7v7H91V420M98 420h7v7H98V420M154 420h7v7H154V420M182 420h7v7H182V420M189 420h7v7H189V420M196 420h7v7H196V420M217 420h7v7H217V420M224 420h7v7H224V420M238 420h7v7H238V420M245 420h7v7H245V420M252 420h7v7H252V420M259 420h7v7H259V420M266 420h7v7H266V420M280 420h7v7H280V420M287 420h7v7H287V420M308 420h7v7H308V420M364 420h7v7H364V420M385 420h7v7H385V420M406 420h7v7H406V420M413 420h7v7H413V420"/></svg>